<svg width="109" height="109" viewBox="0 0 109 109" fill="none" xmlns="http://www.w3.org/2000/svg">
<path d="M95.375 54.5V27.25C95.375 22.2542 91.2875 18.1667 86.2917 18.1667H81.75V13.625C81.75 11.1271 79.7062 9.08337 77.2083 9.08337C74.7104 9.08337 72.6667 11.1271 72.6667 13.625V18.1667H36.3333V13.625C36.3333 11.1271 34.2896 9.08337 31.7917 9.08337C29.2937 9.08337 27.25 11.1271 27.25 13.625V18.1667H22.7083C17.7125 18.1667 13.625 22.2542 13.625 27.25V90.8334C13.625 95.8292 17.7125 99.9167 22.7083 99.9167H54.5V90.8334H22.7083V45.4167H86.2917V54.5H95.375ZM68.7154 90.8334C66.2175 90.8334 64.5825 93.3767 65.6271 95.6475C67.4192 99.6274 70.3228 103.005 73.9888 105.374C77.6547 107.742 81.927 109.002 86.2917 109C98.8267 109 109 98.8267 109 86.2917C109 73.7567 98.8267 63.5834 86.2917 63.5834C80.115 63.5834 74.4833 66.0813 70.3958 70.078V66.9896C70.3958 65.1275 68.8517 63.5834 66.9896 63.5834C65.1275 63.5834 63.5833 65.1275 63.5833 66.9896V77.2084C63.5833 79.7063 65.6271 81.75 68.125 81.75H78.3438C80.2058 81.75 81.75 80.2059 81.75 78.3438C81.75 76.4817 80.2058 74.9375 78.3438 74.9375H75.1646C78.0258 72.1217 81.9771 70.3959 86.2917 70.3959C95.0571 70.3959 102.188 77.5263 102.188 86.2917C102.188 95.0571 95.0571 102.188 86.2917 102.188C79.8425 102.188 74.3017 98.3271 71.8037 92.8317C71.5365 92.2362 71.1028 91.7308 70.5549 91.3762C70.0069 91.0216 69.3681 90.8331 68.7154 90.8334Z" fill="#327F6B"/>
</svg>
