<svg width="109" height="109" viewBox="0 0 109 109" fill="none" xmlns="http://www.w3.org/2000/svg">
<g clip-path="url(#clip0_12_56)">
<path d="M99.9167 19.3778L88.7139 8.17502C87.751 7.25692 86.4716 6.74475 85.1411 6.74475C83.8107 6.74475 82.5313 7.25692 81.5683 8.17502L71.6069 18.1667H18.1667C16.5606 18.1667 15.0204 18.8047 13.8847 19.9403C12.7491 21.076 12.1111 22.6162 12.1111 24.2222V90.8334C12.1111 92.4394 12.7491 93.9796 13.8847 95.1153C15.0204 96.2509 16.5606 96.8889 18.1667 96.8889H84.7778C86.3838 96.8889 87.9241 96.2509 89.0597 95.1153C90.1953 93.9796 90.8333 92.4394 90.8333 90.8334V35.6067L99.9167 26.5234C100.863 25.5753 101.395 24.2903 101.395 22.9506C101.395 21.6108 100.863 20.3258 99.9167 19.3778ZM57.0131 60.9492L44.3267 63.765L47.3544 51.1997L76.2697 22.2239L86.0494 32.0036L57.0131 60.9492ZM89.3194 28.552L79.5397 18.7722L85.1411 13.1708L94.9208 22.9506L89.3194 28.552Z" fill="#327F6B"/>
</g>
<defs>
<clipPath id="clip0_12_56">
<rect width="109" height="109" fill="white"/>
</clipPath>
</defs>
</svg>
