<svg width="109" height="109" viewBox="0 0 109 109" fill="none" xmlns="http://www.w3.org/2000/svg">
<path d="M81.75 49.9584C88.5171 49.9584 94.7846 52.093 99.9167 55.6809V36.3334C99.9167 31.2921 95.8746 27.25 90.8333 27.25H72.6667V18.1667C72.6667 13.1255 68.6246 9.08337 63.5833 9.08337H45.4167C40.3754 9.08337 36.3333 13.1255 36.3333 18.1667V27.25H18.1667C13.1254 27.25 9.12875 31.2921 9.12875 36.3334L9.08334 86.2917C9.08334 91.333 13.1254 95.375 18.1667 95.375H53.0467C50.7424 90.5314 49.7021 85.1833 50.0226 79.8291C50.3431 74.4749 52.014 69.289 54.8796 64.7548C57.7452 60.2207 61.7121 56.4859 66.4106 53.8986C71.1091 51.3113 76.3862 49.9558 81.75 49.9584ZM45.4167 18.1667H63.5833V27.25H45.4167V18.1667Z" fill="#327F6B"/>
<path d="M81.75 59.0416C69.215 59.0416 59.0417 69.215 59.0417 81.75C59.0417 94.285 69.215 104.458 81.75 104.458C94.285 104.458 104.458 94.285 104.458 81.75C104.458 69.215 94.285 59.0416 81.75 59.0416ZM89.2437 92.4229L79.4792 82.6583V68.125H84.0208V80.7962L92.4229 89.1983L89.2437 92.4229Z" fill="#327F6B"/>
</svg>
